<svg width="423" height="129" viewBox="0 0 463 179" fill="none" xmlns="http://www.w3.org/2000/svg">
<path fill-rule="evenodd" clip-rule="evenodd" d="M44.0491 8.45954L7.93264 45.609C2.84654 50.8405 0 57.8574 0 65.1633V114.338C0 121.705 2.89454 128.776 8.05671 134.019L44.069 170.594C49.3185 175.926 56.4793 178.927 63.9515 178.927H114.048C121.521 178.927 128.681 175.926 133.931 170.594L169.943 134.019C175.105 128.776 178 121.705 178 114.338V65.1633C178 57.8574 175.153 50.8405 170.067 45.609L133.951 8.45953C128.692 3.0505 121.478 0 113.944 0H64.0557C56.5221 0 49.3077 3.0505 44.0491 8.45954ZM60.3848 58.2869V61.0014V61.7727V70.2365V72.5478V106.326V107.097V120.64C60.3848 126.879 55.3409 131.936 49.119 131.936C42.897 131.936 37.8532 126.879 37.8532 120.64V95.9151V92.827V65.7288V64.9565V58.2869C37.8532 55.9319 38.5719 53.7453 39.8013 51.9355C40.1103 51.4807 40.4515 51.0497 40.8216 50.6459C42.2134 49.1272 44.0146 47.9917 46.0497 47.4152C46.2515 47.3581 46.4556 47.3064 46.6619 47.2604C47.4528 47.084 48.2751 46.9909 49.119 46.9909C55.3409 46.9909 60.3848 52.0483 60.3848 58.2869ZM100.942 120.64V119.935V119.394V83.7073V82.9347V70.5196V69.7496V59.5699V59.0231V58.2869C100.942 55.16 99.6747 52.3299 97.6272 50.2846C97.4379 50.0955 97.2419 49.9131 97.0397 49.7377C95.0649 48.0262 92.491 46.9909 89.6759 46.9909C86.8609 46.9909 84.2869 48.0262 82.3122 49.7377C82.11 49.9131 81.914 50.0955 81.7247 50.2846C79.6772 52.3299 78.4101 55.16 78.4101 58.2869V59.0231V59.5699V66.647V67.1938V77.6201V78.1669V96.9942V97.7711V106.742V112.928V119.394V119.935V120.64C78.4101 126.879 83.454 131.936 89.6759 131.936C95.8979 131.936 100.942 126.879 100.942 120.64ZM141.499 86.3007V120.64C141.499 126.879 136.455 131.936 130.233 131.936C124.011 131.936 118.967 126.879 118.967 120.64V87.4671V86.3007C118.967 86.1359 118.971 85.9719 118.978 85.8089C119.234 79.7985 124.175 75.0048 130.233 75.0048C136.455 75.0048 141.499 80.0621 141.499 86.3007ZM118.967 58.2869C118.967 64.5254 124.011 69.5828 130.233 69.5828C136.455 69.5828 141.499 64.5254 141.499 58.2869C141.499 52.0483 136.455 46.9909 130.233 46.9909C124.011 46.9909 118.967 52.0483 118.967 58.2869Z" fill="white"/>
<path fill-rule="evenodd" clip-rule="evenodd" d="M45.0266 7.91688C45.4723 7.48574 46.1383 7.48574 46.5788 7.91688C46.9458 8.29019 46.9983 8.82649 46.7466 9.24711L59.1955 21.7135V29.2953L70.4383 40.5523H99.2479L105.766 34.0273H159.436L159.964 34.5741H105.986L99.4682 41.0991H70.2128L58.6501 29.5213V21.9395L46.3638 9.63619C45.939 9.88857 45.3989 9.83073 45.0266 9.46794C44.5966 9.02628 44.5966 8.35854 45.0266 7.91688ZM35.4094 21.8396H30.9741L31.5021 21.2928H35.6296L42.6878 28.3594V43.2811L46.6619 47.2604C46.4556 47.3064 46.2515 47.3581 46.0497 47.4152L42.1477 43.5072V28.5907L35.4094 21.8396ZM60.3848 61.7727V61.0014L66.0229 66.647H78.4101V67.1938H65.7975L60.3848 61.7727ZM100.942 70.5196V69.7496L104.628 73.4401H140.103C140.223 72.9669 140.653 72.6146 141.162 72.6146C141.77 72.6146 142.263 73.1089 142.263 73.7135C142.263 74.3234 141.765 74.8124 141.162 74.8124C140.653 74.8124 140.223 74.4601 140.103 73.9869H104.408L100.942 70.5196ZM56.8672 36.9717C57.3129 36.5406 57.9789 36.5406 58.4194 36.9717C58.7812 37.3503 58.8389 37.8866 58.5924 38.3072L70.0083 49.7377H82.3122C82.11 49.9131 81.914 50.0955 81.7247 50.2846H69.7775L58.2044 38.691C57.7796 38.9434 57.2395 38.8856 56.8672 38.528C56.4372 38.0864 56.4372 37.4134 56.8672 36.9717ZM97.6272 50.2846C97.4379 50.0955 97.2419 49.9131 97.0397 49.7377H102.52L109.662 42.5818H133.569C133.695 42.1086 134.125 41.7563 134.633 41.7563C135.242 41.7563 135.735 42.2558 135.735 42.8552C135.735 43.4651 135.236 43.9594 134.633 43.9594C134.125 43.9594 133.695 43.6018 133.569 43.1286H109.888L102.74 50.2846H97.6272ZM73.6737 33.47C73.6737 32.8601 74.1666 32.3711 74.7697 32.3711C75.2836 32.3711 75.7136 32.7234 75.8342 33.1966H95.1682L104.135 24.2214H135.908L140.795 19.3211H145.125L145.672 19.868H141.02L136.133 24.763H104.361L95.3937 33.7434H75.8342C75.7136 34.2166 75.2836 34.5689 74.7697 34.5689C74.1614 34.5689 73.6737 34.0746 73.6737 33.47ZM58.11 6.37633C59.3947 5.10393 61.4451 5.10393 62.7298 6.37633C63.7996 7.4647 63.9726 9.09463 63.2332 10.3513L74.9427 22.0815H87.8426L95.7713 14.1369H110.16C110.527 12.7331 111.807 11.6868 113.322 11.6868C115.121 11.6868 116.589 13.1537 116.589 14.9519C116.589 16.7553 115.121 18.2222 113.322 18.2222C111.812 18.2222 110.527 17.1759 110.16 15.7668H96.4477L88.519 23.7114H74.2663L62.0796 11.508C60.8211 12.2441 59.1955 12.0811 58.11 11.0032C56.841 9.71506 56.841 7.6645 58.11 6.37633ZM26.8655 26.0512L25.2766 27.6916H29.0591L33.401 32.0399V45.5262L39.8013 51.9355C40.1103 51.4807 40.4515 51.0497 40.8216 50.6459L35.0318 44.848V31.3563L29.7356 26.0512H26.8655ZM62.4257 74.5916L60.3848 72.5478V70.2365L64.0565 73.9133V93.2464L77.8111 107.017C78.0031 106.904 78.2039 106.812 78.4101 106.742V112.928C77.9532 112.772 77.5231 112.512 77.1556 112.148C76.0806 111.06 75.9128 109.435 76.6522 108.173L62.4257 93.9246V74.5916ZM118.967 87.4671C118.804 87.3234 118.684 87.1323 118.629 86.9159H104.146L100.942 83.7073V82.9347L104.371 86.3691H118.629C118.685 86.1481 118.809 85.9535 118.978 85.8089C118.971 85.9719 118.967 86.1359 118.967 86.3007V87.4671ZM78.4101 77.6201H69.9453V89.2925L78.4101 97.7711V96.9942L70.4907 89.0664V78.1669H78.4101V77.6201ZM23.2437 34.348H18.8029L19.3471 33.796H23.4692L26.4844 36.8192V47.5925L14.5284 59.5699V93.6407L28.7917 107.932V124.247C29.2689 124.373 29.6202 124.804 29.6202 125.314C29.6202 125.924 29.122 126.413 28.519 126.413C27.9159 126.413 27.423 125.919 27.423 125.314C27.423 124.804 27.7744 124.373 28.2463 124.247V108.158L13.9831 93.8668V59.3438L25.939 47.3665V37.0453L23.2437 34.348ZM18.3145 41.7301C19.5887 43.0182 19.5887 45.0688 18.3145 46.357C17.2342 47.4348 15.6034 47.6031 14.3449 46.867L8.73922 52.4823V98.8144L18.0418 108.131V133.348C19.4524 133.716 20.4959 134.994 20.4959 136.513C20.4959 138.311 19.0276 139.784 17.229 139.784C15.4304 139.784 13.9673 138.311 13.9673 136.513C13.9673 134.999 15.0109 133.716 16.4162 133.348V108.81L7.10839 99.4874V51.7988L13.1912 45.705C12.4571 44.4431 12.6197 42.8184 13.6947 41.7301C14.9846 40.4577 17.0297 40.4577 18.3145 41.7301ZM7.84253 107.285C8.45081 107.285 8.94373 107.784 8.94373 108.389C8.94373 108.899 8.59239 109.33 8.11521 109.451V128.201L5.72311 130.596L5.40759 130.145L7.56985 127.98V109.451C7.0979 109.33 6.74656 108.899 6.74656 108.389C6.74656 107.779 7.23948 107.285 7.84253 107.285ZM30.2599 57.7402C30.7004 57.309 31.3664 57.309 31.8069 57.7402C32.1687 58.1135 32.2264 58.6498 31.9747 59.0704L37.8532 64.9565V65.7288L31.5919 59.4595C31.1671 59.7119 30.6323 59.654 30.2599 59.2912C29.83 58.8496 29.83 58.1818 30.2599 57.7402ZM73.207 119.935L60.3848 107.097V106.326L73.4325 119.394H78.4101V119.935H73.207ZM100.942 119.935H114.875C115 120.408 115.43 120.766 115.939 120.766C116.542 120.766 117.035 120.272 117.035 119.662C117.035 119.062 116.547 118.563 115.939 118.563C115.43 118.563 115 118.92 114.875 119.394H100.942V119.935ZM33.2227 51.4518C33.6527 51.8935 33.6527 52.5665 33.2227 53.0081C32.8504 53.3709 32.3103 53.4288 31.896 53.1711L21.6915 63.3871V89.0611L36.9511 104.34V139.778C37.423 139.904 37.7796 140.336 37.7796 140.846C37.7796 141.45 37.2814 141.945 36.6784 141.945C36.0701 141.945 35.5824 141.45 35.5824 140.846C35.5824 140.336 35.9338 139.904 36.4057 139.778V104.567L21.1461 89.282V63.161L31.508 52.7873C31.251 52.3667 31.3087 51.8251 31.6705 51.4518C32.111 51.0207 32.7822 51.0207 33.2227 51.4518ZM34.1351 67.9719C36.5421 67.9877 38.477 69.9173 38.4875 72.3359C38.477 74.3707 37.1032 76.069 35.2259 76.5527V90.1968L37.8532 92.827V95.9151L33.0444 91.1012V76.5527C31.1619 76.069 29.788 74.3707 29.7775 72.3359C29.7932 69.9173 31.723 67.9825 34.1351 67.9719ZM38.0254 14.5891L37.4883 15.1359H39.7356L50.2704 25.6831V41.4672L68.3512 59.5699H78.4101V59.0231H68.5715L50.8106 41.2358V25.457L39.961 14.5891H38.0254ZM100.942 59.0231V59.5699H110.464C110.59 60.0431 111.02 60.3954 111.529 60.3954C112.132 60.3954 112.63 59.9012 112.63 59.2965C112.63 58.6919 112.137 58.1976 111.529 58.1976C111.02 58.1976 110.59 58.5499 110.464 59.0231H100.942Z" fill="#7F7F7F"/>
<path d="M227.16 110.28C222.723 110.28 218.797 109.299 215.384 107.336C211.971 105.288 209.283 102.429 207.32 98.76C205.443 95.0907 204.504 90.9093 204.504 86.216V42.184C204.504 37.4907 205.443 33.3093 207.32 29.64C209.283 25.9707 211.971 23.1547 215.384 21.192C218.797 19.144 222.723 18.12 227.16 18.12C231.512 18.12 235.395 19.144 238.808 21.192C242.221 23.1547 244.867 25.8853 246.744 29.384C248.707 32.8827 249.688 36.8507 249.688 41.288V87.112C249.688 91.5493 248.707 95.5173 246.744 99.016C244.867 102.515 242.221 105.288 238.808 107.336C235.395 109.299 231.512 110.28 227.16 110.28ZM227.16 99.528C230.403 99.528 233.005 98.4187 234.968 96.2C237.016 93.9813 238.04 91.1227 238.04 87.624V40.776C238.04 37.2773 237.016 34.4187 234.968 32.2C233.005 29.9813 230.403 28.872 227.16 28.872C223.832 28.872 221.144 30.024 219.096 32.328C217.133 34.632 216.152 37.7467 216.152 41.672V86.728C216.152 90.6533 217.133 93.768 219.096 96.072C221.144 98.376 223.832 99.528 227.16 99.528ZM307.867 43.592C313.67 43.592 318.32 45.5547 321.819 49.48C325.318 53.32 327.067 58.312 327.067 64.456V107.208C327.067 108.403 326.512 109 325.403 109H317.979C316.784 109 316.187 108.403 316.187 107.208V64.072C316.187 61 315.462 58.568 314.011 56.776C312.56 54.984 310.512 54.088 307.867 54.088C305.222 54.088 303.131 54.984 301.595 56.776C300.144 58.568 299.419 61 299.419 64.072V107.208C299.419 108.403 298.864 109 297.755 109H290.331C289.136 109 288.539 108.403 288.539 107.208V64.072C288.539 61 287.814 58.568 286.363 56.776C284.912 54.984 282.864 54.088 280.219 54.088C277.574 54.088 275.483 54.984 273.947 56.776C272.496 58.568 271.771 61 271.771 64.072V107.208C271.771 108.403 271.174 109 269.979 109H262.683C261.488 109 260.891 108.403 260.891 107.208V64.456C260.891 58.312 262.64 53.32 266.139 49.48C269.723 45.5547 274.416 43.592 280.219 43.592C283.12 43.592 285.766 44.3173 288.155 45.768C290.544 47.1333 292.507 49.0107 294.043 51.4C295.579 49.0107 297.542 47.1333 299.931 45.768C302.32 44.3173 304.966 43.592 307.867 43.592ZM340.933 109C339.738 109 339.141 108.403 339.141 107.208V64.456C339.141 58.312 340.976 53.32 344.645 49.48C348.4 45.5547 353.221 43.592 359.109 43.592C364.997 43.592 369.776 45.5547 373.445 49.48C377.2 53.32 379.077 58.312 379.077 64.456V107.208C379.077 108.403 378.48 109 377.285 109H369.861C368.666 109 368.069 108.403 368.069 107.208V64.072C368.069 61 367.258 58.568 365.637 56.776C364.101 54.8987 361.925 53.96 359.109 53.96C356.293 53.96 354.074 54.8987 352.453 56.776C350.917 58.568 350.149 61 350.149 64.072V107.208C350.149 108.403 349.552 109 348.357 109H340.933ZM393.832 109C392.637 109 392.04 108.403 392.04 107.208V46.664C392.04 45.5547 392.637 45 393.832 45H401.256C402.451 45 403.048 45.5547 403.048 46.664V107.208C403.048 108.403 402.451 109 401.256 109H393.832ZM397.544 36.936C395.667 36.936 394.088 36.3387 392.808 35.144C391.613 33.864 391.016 32.2853 391.016 30.408C391.016 28.4453 391.613 26.8667 392.808 25.672C394.088 24.392 395.667 23.752 397.544 23.752C399.421 23.752 401 24.392 402.28 25.672C403.56 26.952 404.2 28.5307 404.2 30.408C404.2 32.1147 403.517 33.6507 402.152 35.016C400.872 36.296 399.336 36.936 397.544 36.936ZM434.582 110.28C428.438 110.28 423.446 108.36 419.606 104.52C415.766 100.68 413.846 95.7307 413.846 89.672C413.846 86.1733 414.699 83.016 416.406 80.2C418.113 77.2987 420.502 75.0373 423.574 73.416C426.646 71.7093 430.145 70.856 434.07 70.856H443.67V63.816C443.67 60.9147 442.817 58.568 441.11 56.776C439.489 54.984 437.27 54.088 434.454 54.088C431.809 54.088 429.718 54.8987 428.182 56.52C426.731 58.056 425.921 60.1893 425.75 62.92C425.665 63.5173 425.494 63.944 425.238 64.2C424.982 64.3707 424.555 64.456 423.958 64.456H416.534C416.022 64.456 415.595 64.2853 415.254 63.944C414.998 63.6027 414.87 63.176 414.87 62.664C415.297 57.032 417.259 52.4667 420.758 48.968C424.342 45.384 428.95 43.592 434.582 43.592C440.555 43.592 445.377 45.5547 449.046 49.48C452.715 53.32 454.55 58.2693 454.55 64.328V90.056C454.55 96.0293 452.715 100.893 449.046 104.648C445.462 108.403 440.641 110.28 434.582 110.28ZM434.454 99.784C437.355 99.784 439.617 98.9307 441.238 97.224C442.859 95.432 443.67 93.0427 443.67 90.056V80.712H434.454C431.553 80.712 429.206 81.5653 427.414 83.272C425.707 84.9787 424.854 87.112 424.854 89.672C424.854 92.744 425.707 95.2187 427.414 97.096C429.121 98.888 431.467 99.784 434.454 99.784Z" fill="white"/>
<path d="M207.03 149C206.563 149 206.33 148.767 206.33 148.3V130.835C206.33 128.805 206.913 127.172 208.08 125.935C209.27 124.698 210.833 124.08 212.77 124.08C214.707 124.08 216.258 124.698 217.425 125.935C218.615 127.172 219.21 128.805 219.21 130.835V148.3C219.21 148.767 218.977 149 218.51 149H214.765C214.298 149 214.065 148.767 214.065 148.3V141.93H211.475V148.3C211.475 148.767 211.242 149 210.775 149H207.03ZM214.065 137.205V130.415C214.065 129.948 213.948 129.587 213.715 129.33C213.482 129.05 213.167 128.91 212.77 128.91C212.373 128.91 212.058 129.05 211.825 129.33C211.592 129.587 211.475 129.948 211.475 130.415V137.205H214.065ZM225.461 131.5C225.927 131.5 226.161 131.733 226.161 132.2V143.68C226.161 144.053 226.254 144.345 226.441 144.555C226.627 144.765 226.884 144.87 227.211 144.87C227.537 144.87 227.794 144.765 227.981 144.555C228.167 144.345 228.261 144.053 228.261 143.68V132.2C228.261 131.733 228.494 131.5 228.961 131.5H232.391C232.857 131.5 233.091 131.733 233.091 132.2V143.365C233.091 145.185 232.554 146.655 231.481 147.775C230.407 148.872 228.984 149.42 227.211 149.42C225.437 149.42 224.014 148.872 222.941 147.775C221.867 146.655 221.331 145.185 221.331 143.365V132.2C221.331 131.733 221.564 131.5 222.031 131.5H225.461ZM244.128 144.625C244.594 144.625 244.828 144.858 244.828 145.325V148.475C244.828 148.942 244.594 149.175 244.128 149.175H243.393C241.363 149.175 239.753 148.568 238.563 147.355C237.396 146.142 236.813 144.497 236.813 142.42V135.84H235.238C234.771 135.84 234.538 135.607 234.538 135.14V132.2C234.538 131.733 234.771 131.5 235.238 131.5H236.813V127.02C236.813 126.553 237.046 126.32 237.513 126.32H240.943C241.409 126.32 241.643 126.553 241.643 127.02V131.5H243.743C244.209 131.5 244.443 131.733 244.443 132.2V135.14C244.443 135.607 244.209 135.84 243.743 135.84H241.643V142.49C241.643 143.237 241.818 143.785 242.168 144.135C242.518 144.462 243.066 144.625 243.813 144.625H244.128ZM251.888 149.42C250.091 149.42 248.644 148.872 247.548 147.775C246.451 146.655 245.903 145.185 245.903 143.365V137.135C245.903 135.315 246.451 133.857 247.548 132.76C248.644 131.64 250.091 131.08 251.888 131.08C253.684 131.08 255.131 131.64 256.228 132.76C257.324 133.857 257.873 135.315 257.873 137.135V143.365C257.873 145.185 257.324 146.655 256.228 147.775C255.131 148.872 253.684 149.42 251.888 149.42ZM251.888 144.87C252.238 144.87 252.506 144.765 252.693 144.555C252.903 144.345 253.008 144.053 253.008 143.68V136.82C253.008 136.447 252.903 136.155 252.693 135.945C252.506 135.735 252.238 135.63 251.888 135.63C251.538 135.63 251.258 135.735 251.048 135.945C250.861 136.155 250.768 136.447 250.768 136.82V143.68C250.768 144.053 250.861 144.345 251.048 144.555C251.258 144.765 251.538 144.87 251.888 144.87ZM272.516 131.08C274.243 131.08 275.631 131.64 276.681 132.76C277.731 133.857 278.256 135.315 278.256 137.135V148.3C278.256 148.767 278.023 149 277.556 149H274.196C273.73 149 273.496 148.767 273.496 148.3V136.82C273.496 136.447 273.403 136.155 273.216 135.945C273.053 135.735 272.82 135.63 272.516 135.63C272.213 135.63 271.968 135.735 271.781 135.945C271.618 136.155 271.536 136.447 271.536 136.82V148.3C271.536 148.767 271.303 149 270.836 149H267.476C267.01 149 266.776 148.767 266.776 148.3V136.82C266.776 136.447 266.683 136.155 266.496 135.945C266.333 135.735 266.1 135.63 265.796 135.63C265.493 135.63 265.248 135.735 265.061 135.945C264.898 136.155 264.816 136.447 264.816 136.82V148.3C264.816 148.767 264.583 149 264.116 149H260.756C260.29 149 260.056 148.767 260.056 148.3V137.135C260.056 135.315 260.581 133.857 261.631 132.76C262.681 131.64 264.07 131.08 265.796 131.08C267.08 131.08 268.2 131.465 269.156 132.235C270.113 131.465 271.233 131.08 272.516 131.08ZM286.339 149.42C284.496 149.42 283.003 148.872 281.859 147.775C280.739 146.678 280.179 145.232 280.179 143.435C280.179 141.848 280.716 140.553 281.789 139.55C282.886 138.547 284.298 138.045 286.024 138.045H287.214V136.82C287.214 136.447 287.121 136.155 286.934 135.945C286.771 135.735 286.526 135.63 286.199 135.63C285.569 135.63 285.231 135.957 285.184 136.61C285.161 136.82 285.091 136.96 284.974 137.03C284.881 137.077 284.718 137.1 284.484 137.1H281.089C280.599 137.1 280.378 136.867 280.424 136.4C280.564 134.79 281.159 133.507 282.209 132.55C283.283 131.57 284.636 131.08 286.269 131.08C287.996 131.08 289.384 131.64 290.434 132.76C291.508 133.857 292.044 135.315 292.044 137.135V143.68C292.044 145.43 291.543 146.83 290.539 147.88C289.536 148.907 288.136 149.42 286.339 149.42ZM286.269 144.835C286.899 144.835 287.214 144.462 287.214 143.715V142.21H286.339C285.919 142.21 285.593 142.315 285.359 142.525C285.149 142.735 285.044 143.038 285.044 143.435C285.044 143.878 285.149 144.228 285.359 144.485C285.593 144.718 285.896 144.835 286.269 144.835ZM302.78 144.625C303.247 144.625 303.48 144.858 303.48 145.325V148.475C303.48 148.942 303.247 149.175 302.78 149.175H302.045C300.015 149.175 298.405 148.568 297.215 147.355C296.048 146.142 295.465 144.497 295.465 142.42V135.84H293.89C293.423 135.84 293.19 135.607 293.19 135.14V132.2C293.19 131.733 293.423 131.5 293.89 131.5H295.465V127.02C295.465 126.553 295.698 126.32 296.165 126.32H299.595C300.062 126.32 300.295 126.553 300.295 127.02V131.5H302.395C302.862 131.5 303.095 131.733 303.095 132.2V135.14C303.095 135.607 302.862 135.84 302.395 135.84H300.295V142.49C300.295 143.237 300.47 143.785 300.82 144.135C301.17 144.462 301.718 144.625 302.465 144.625H302.78ZM305.979 149C305.513 149 305.279 148.767 305.279 148.3V132.2C305.279 131.733 305.513 131.5 305.979 131.5H309.409C309.876 131.5 310.109 131.733 310.109 132.2V148.3C310.109 148.767 309.876 149 309.409 149H305.979ZM307.694 129.47C306.924 129.47 306.294 129.225 305.804 128.735C305.314 128.222 305.069 127.592 305.069 126.845C305.069 126.098 305.314 125.48 305.804 124.99C306.294 124.477 306.924 124.22 307.694 124.22C308.441 124.22 309.059 124.477 309.549 124.99C310.063 125.48 310.319 126.098 310.319 126.845C310.319 127.545 310.063 128.163 309.549 128.7C309.036 129.213 308.418 129.47 307.694 129.47ZM317.718 149.42C315.921 149.42 314.474 148.872 313.378 147.775C312.281 146.655 311.733 145.185 311.733 143.365V137.135C311.733 135.315 312.281 133.857 313.378 132.76C314.474 131.64 315.921 131.08 317.718 131.08C319.514 131.08 320.961 131.64 322.058 132.76C323.154 133.857 323.703 135.315 323.703 137.135V143.365C323.703 145.185 323.154 146.655 322.058 147.775C320.961 148.872 319.514 149.42 317.718 149.42ZM317.718 144.87C318.068 144.87 318.336 144.765 318.523 144.555C318.733 144.345 318.838 144.053 318.838 143.68V136.82C318.838 136.447 318.733 136.155 318.523 135.945C318.336 135.735 318.068 135.63 317.718 135.63C317.368 135.63 317.088 135.735 316.878 135.945C316.691 136.155 316.598 136.447 316.598 136.82V143.68C316.598 144.053 316.691 144.345 316.878 144.555C317.088 144.765 317.368 144.87 317.718 144.87ZM326.586 149C326.12 149 325.886 148.767 325.886 148.3V137.135C325.886 135.315 326.423 133.857 327.496 132.76C328.57 131.64 329.993 131.08 331.766 131.08C333.54 131.08 334.963 131.64 336.036 132.76C337.11 133.857 337.646 135.315 337.646 137.135V148.3C337.646 148.767 337.413 149 336.946 149H333.516C333.05 149 332.816 148.767 332.816 148.3V136.82C332.816 136.447 332.723 136.155 332.536 135.945C332.35 135.735 332.093 135.63 331.766 135.63C331.44 135.63 331.183 135.735 330.996 135.945C330.81 136.155 330.716 136.447 330.716 136.82V148.3C330.716 148.767 330.483 149 330.016 149H326.586ZM353.135 149.175C351.292 149.175 349.799 148.592 348.655 147.425C347.535 146.235 346.975 144.695 346.975 142.805V140.6C346.975 139.597 347.139 138.733 347.465 138.01C347.792 137.287 348.235 136.715 348.795 136.295C348.212 135.712 347.757 135.012 347.43 134.195C347.127 133.355 346.975 132.515 346.975 131.675V130.835C346.975 128.805 347.535 127.172 348.655 125.935C349.799 124.698 351.292 124.08 353.135 124.08C354.932 124.08 356.367 124.71 357.44 125.97C358.537 127.23 359.12 128.968 359.19 131.185C359.19 131.675 358.969 131.92 358.525 131.92H354.99C354.78 131.92 354.605 131.862 354.465 131.745C354.349 131.628 354.29 131.453 354.29 131.22C354.267 129.563 353.835 128.735 352.995 128.735C352.645 128.735 352.365 128.875 352.155 129.155C351.945 129.412 351.84 129.773 351.84 130.24V132.585C351.84 133.122 351.945 133.542 352.155 133.845C352.365 134.148 352.692 134.3 353.135 134.3H360.065C360.532 134.3 360.765 134.533 360.765 135V137.8C360.765 138.267 360.532 138.5 360.065 138.5H359.015V147.075C359.015 147.752 358.829 148.277 358.455 148.65C358.105 149 357.592 149.175 356.915 149.175H353.135ZM354.22 144.45V138.5H353.135C352.762 138.5 352.47 138.628 352.26 138.885C352.05 139.142 351.945 139.608 351.945 140.285V142.63C351.945 143.283 352.039 143.762 352.225 144.065C352.412 144.345 352.715 144.485 353.135 144.485L354.22 144.45ZM380.798 136.33C382.128 137.543 382.793 139.072 382.793 140.915V142.315C382.793 144.392 382.198 146.06 381.008 147.32C379.841 148.557 378.301 149.175 376.388 149.175H372.083C371.476 149.175 370.963 148.977 370.543 148.58C370.146 148.16 369.948 147.647 369.948 147.04V130.835C369.948 128.805 370.52 127.172 371.663 125.935C372.806 124.698 374.311 124.08 376.178 124.08C378.045 124.08 379.55 124.698 380.693 125.935C381.86 127.172 382.443 128.805 382.443 130.835V132.13C382.466 133.763 381.918 135.163 380.798 136.33ZM375.093 134.37H376.248C376.575 134.37 376.831 134.23 377.018 133.95C377.205 133.67 377.298 133.285 377.298 132.795V130.31C377.298 129.867 377.193 129.517 376.983 129.26C376.773 129.003 376.493 128.875 376.143 128.875C375.816 128.875 375.56 129.003 375.373 129.26C375.186 129.517 375.093 129.867 375.093 130.31V134.37ZM377.578 140.74C377.578 140.157 377.461 139.713 377.228 139.41C376.995 139.083 376.668 138.92 376.248 138.92H375.093V144.52H376.248C376.668 144.52 376.995 144.368 377.228 144.065C377.461 143.738 377.578 143.307 377.578 142.77V140.74ZM390.346 149.42C388.619 149.42 387.219 148.872 386.146 147.775C385.072 146.655 384.536 145.185 384.536 143.365V136.925C384.582 135.152 385.154 133.74 386.251 132.69C387.371 131.617 388.829 131.08 390.626 131.08C391.722 131.08 392.714 131.325 393.601 131.815C394.487 132.305 395.187 132.993 395.701 133.88C396.214 134.767 396.471 135.782 396.471 136.925C396.471 138.582 395.922 139.923 394.826 140.95C393.752 141.953 392.341 142.455 390.591 142.455H389.401V143.68C389.401 144.053 389.482 144.345 389.646 144.555C389.832 144.765 390.089 144.87 390.416 144.87C390.882 144.87 391.209 144.613 391.396 144.1C391.489 143.657 391.734 143.435 392.131 143.435H395.596C396.086 143.435 396.307 143.668 396.261 144.135C396.121 145.722 395.514 147.005 394.441 147.985C393.367 148.942 392.002 149.42 390.346 149.42ZM390.591 138.22C391.267 138.22 391.606 137.823 391.606 137.03C391.606 136.097 391.232 135.63 390.486 135.63C390.136 135.63 389.867 135.735 389.681 135.945C389.494 136.155 389.401 136.447 389.401 136.82V138.22H390.591ZM409.442 131.5C409.908 131.5 410.142 131.733 410.142 132.2V150.365C410.142 152.278 409.617 153.76 408.567 154.81C407.54 155.883 406.105 156.42 404.262 156.42C402.535 156.42 401.158 155.907 400.132 154.88C399.105 153.853 398.533 152.407 398.417 150.54V150.435C398.417 150.015 398.638 149.805 399.082 149.805H402.547C402.92 149.805 403.165 150.038 403.282 150.505C403.398 151.415 403.725 151.87 404.262 151.87C404.588 151.87 404.845 151.765 405.032 151.555C405.218 151.345 405.312 151.053 405.312 150.68V147.775C404.845 148.125 404.273 148.3 403.597 148.3C402.617 148.3 401.73 148.055 400.937 147.565C400.143 147.052 399.513 146.34 399.047 145.43C398.603 144.497 398.382 143.435 398.382 142.245V132.2C398.382 131.733 398.615 131.5 399.082 131.5H402.512C402.978 131.5 403.212 131.733 403.212 132.2V142.56C403.212 142.933 403.305 143.225 403.492 143.435C403.678 143.645 403.935 143.75 404.262 143.75C404.588 143.75 404.845 143.645 405.032 143.435C405.218 143.225 405.312 142.933 405.312 142.56V132.2C405.312 131.733 405.545 131.5 406.012 131.5H409.442ZM417.762 149.42C415.965 149.42 414.518 148.872 413.422 147.775C412.325 146.655 411.777 145.185 411.777 143.365V137.135C411.777 135.315 412.325 133.857 413.422 132.76C414.518 131.64 415.965 131.08 417.762 131.08C419.558 131.08 421.005 131.64 422.102 132.76C423.198 133.857 423.747 135.315 423.747 137.135V143.365C423.747 145.185 423.198 146.655 422.102 147.775C421.005 148.872 419.558 149.42 417.762 149.42ZM417.762 144.87C418.112 144.87 418.38 144.765 418.567 144.555C418.777 144.345 418.882 144.053 418.882 143.68V136.82C418.882 136.447 418.777 136.155 418.567 135.945C418.38 135.735 418.112 135.63 417.762 135.63C417.412 135.63 417.132 135.735 416.922 135.945C416.735 136.155 416.642 136.447 416.642 136.82V143.68C416.642 144.053 416.735 144.345 416.922 144.555C417.132 144.765 417.412 144.87 417.762 144.87ZM426.63 149C426.164 149 425.93 148.767 425.93 148.3V137.135C425.93 135.315 426.467 133.857 427.54 132.76C428.614 131.64 430.037 131.08 431.81 131.08C433.584 131.08 435.007 131.64 436.08 132.76C437.154 133.857 437.69 135.315 437.69 137.135V148.3C437.69 148.767 437.457 149 436.99 149H433.56C433.094 149 432.86 148.767 432.86 148.3V136.82C432.86 136.447 432.767 136.155 432.58 135.945C432.394 135.735 432.137 135.63 431.81 135.63C431.484 135.63 431.227 135.735 431.04 135.945C430.854 136.155 430.76 136.447 430.76 136.82V148.3C430.76 148.767 430.527 149 430.06 149H426.63ZM451.072 124.5C451.539 124.5 451.772 124.733 451.772 125.2V143.365C451.772 145.185 451.224 146.655 450.127 147.775C449.054 148.872 447.619 149.42 445.822 149.42C444.026 149.42 442.579 148.872 441.482 147.775C440.409 146.655 439.872 145.185 439.872 143.365V137.135C439.872 135.315 440.316 133.857 441.202 132.76C442.112 131.64 443.326 131.08 444.842 131.08C445.752 131.08 446.452 131.255 446.942 131.605V125.2C446.942 124.733 447.176 124.5 447.642 124.5H451.072ZM446.942 136.82C446.942 136.447 446.837 136.155 446.627 135.945C446.441 135.735 446.172 135.63 445.822 135.63C445.472 135.63 445.192 135.735 444.982 135.945C444.796 136.155 444.702 136.447 444.702 136.82V143.68C444.702 144.053 444.796 144.345 444.982 144.555C445.192 144.765 445.472 144.87 445.822 144.87C446.172 144.87 446.441 144.765 446.627 144.555C446.837 144.345 446.942 144.053 446.942 143.68V136.82Z" fill="white"/>
<rect x="197" y="117" width="265" height="42" rx="6" stroke="white" stroke-width="2"/>
</svg>
